# xmcd CD database file
#
# Track frame offsets:
#	150
#	14235
#	24925
#	38375
#	47747
#	61297
#	75470
#	88682
#	99510
#	114102
#	129787
#	143630
#
# Disc length: 2117 seconds
#
# Revision: 0
# Processed by: cddbd v1.5.1PL0 Copyright (c) Steve Scherf et al.
# Submitted via: CDex 1.51
#
DISCID=8508430c
DTITLE=Rex Allen - Classic Westerns
DYEAR=1900
DGENRE=Western
TTITLE0=The Trail Of The Lonesome Pine
TTITLE1=Nothin' To Do
TTITLE2=The Last Round-Up
TTITLE3=The Last Frontier
TTITLE4=Rocky Mountain Lullaby
TTITLE5=Ole Faithful
TTITLE6=Twilight Of Laredo
TTITLE7=The Railroad Corral
TTITLE8=Streets Of Laredo
TTITLE9=At The Rainbow's End
TTITLE10=Sky Boss
TTITLE11=Too Lee Roll Um
EXTD=
EXTT0=
EXTT1=
EXTT2=
EXTT3=
EXTT4=
EXTT5=
EXTT6=
EXTT7=
EXTT8=
EXTT9=
EXTT10=
EXTT11=
PLAYORDER=
